# xmcd
#
# Track frame offsets:
#	150
#	14643
#	28619
#	51785
#	81833
#	98533
#	115153
#	129027
#	148988
#	168071
#	188413
#
# Disc length: 2832 seconds
#
# Revision: 0
# Processed by: cddbd v1.5.2PL0 Copyright (c) Steve Scherf et al.
# Submitted via: EasyCDDAExtractor 2010.6.0.0
#
DISCID=810b0e0b
DTITLE=Procol Harum - Exotic Birds and Fruit
DYEAR=2009
DGENRE=AlternRock
TTITLE0=Nothing But The Truth
TTITLE1=Beyond The Pale
TTITLE2=As Strong As Samson
TTITLE3=The Idol
TTITLE4=The Thin End Of The Wedge
TTITLE5=Monsieur R. Monde
TTITLE6=Fresh Fruit
TTITLE7=Butterfly Boys
TTITLE8=New Lamps For Old
TTITLE9=Drunk Again
TTITLE10=As Strong As Samson (alt. mix in Db)
EXTD=
EXTT0=
EXTT1=
EXTT2=
EXTT3=
EXTT4=
EXTT5=
EXTT6=
EXTT7=
EXTT8=
EXTT9=
EXTT10=
PLAYORDER=
